<?xml version="1.0" encoding="UTF-8"?>
<svg version="1.1" xmlns="http://www.w3.org/2000/svg" viewBox="182 30 890 890" width="890" height="890">
<path d="M0 0 C413.82 0 827.64 0 1254 0 C1254 413.82 1254 827.64 1254 1254 C840.18 1254 426.36 1254 0 1254 C0 840.18 0 426.36 0 0 Z " fill="#FDFDFD" transform="translate(0,0)"/>
<path d="M0 0 C162.69 0 325.38 0 493 0 C491.67613704 3.97158889 490.35471254 7.66487381 488.70703125 11.48046875 C488.24941406 12.54394531 487.79179688 13.60742188 487.3203125 14.703125 C486.82273437 15.85296875 486.32515625 17.0028125 485.8125 18.1875 C485.2822835 19.41785304 484.75234266 20.64832491 484.22265625 21.87890625 C483.08378201 24.52433075 481.94380873 27.169278 480.80322266 29.81396484 C478.01053785 36.29294033 475.23488516 42.77922184 472.45736694 49.26470947 C470.84712119 53.02436202 469.23607906 56.78367323 467.625 60.54296875 C467.31124924 61.27511597 466.99749847 62.00726318 466.67424011 62.76159668 C464.84690196 67.02533562 463.01794126 71.28837328 461.1875 75.55078125 C456.30562699 86.92313422 451.4429268 98.30341223 446.59765625 109.69140625 C427.06361473 155.60149396 427.06361473 155.60149396 417.49902344 177.55761719 C414.94561588 183.42130556 412.39928113 189.28805803 409.85455322 195.15551758 C409.03649863 197.04088189 408.21729862 198.92574499 407.39794922 200.81054688 C405.07047096 206.17441791 402.76288094 211.54403744 400.5234375 216.9453125 C397.90340435 223.26329348 395.19151724 229.54019241 392.46630859 235.81326294 C391.60548161 237.79493237 390.74600023 239.77718147 389.88671875 241.75952148 C387.22496687 247.8969947 384.55159551 254.02896904 381.84643555 260.14746094 C379.07168753 266.4252583 376.53473354 272.75269325 374.1171875 279.17578125 C372.90398506 282.2427231 371.49182588 285.12782483 369.96484375 288.046875 C368.44372321 291.12606637 367.24050885 294.32369169 365.98828125 297.51953125 C364.80526503 300.4887617 363.51454375 303.39823611 362.203125 306.3125 C360.59370083 309.90757738 359.01562212 313.51609368 357.4375 317.125 C357.14447998 317.79418457 356.85145996 318.46336914 356.54956055 319.15283203 C353.41580412 326.3179757 350.36298666 333.51342505 347.37890625 340.7421875 C346.35222516 343.16783063 345.30136341 345.57335896 344.22412109 347.97631836 C341.76413527 353.5028848 339.39850567 359.06828827 337.03515625 364.63671875 C336.06725232 366.91326242 335.09931486 369.18979183 334.13134766 371.46630859 C333.63016418 372.64570007 333.12898071 373.82509155 332.61260986 375.04022217 C318.70877869 407.75476481 318.70877869 407.75476481 312.125 422.875 C299.67465304 451.48648173 287.60737302 480.2645922 275.48066711 509.01428223 C275.0938829 509.93124878 274.70709869 510.84821533 274.30859375 511.79296875 C273.92942307 512.69188843 273.55025238 513.59080811 273.15959167 514.51696777 C271.06161966 519.48914328 268.95846764 524.45904275 266.84765625 529.42578125 C259.42519797 546.89318529 252.2002784 564.44012122 245 582 C244.34 582 243.68 582 243 582 C242.42221802 580.62678589 242.42221802 580.62678589 241.83276367 579.22583008 C239.95135119 574.75457606 238.06945856 570.28352419 236.1875 565.8125 C235.83430695 564.97334045 235.48111389 564.13418091 235.11721802 563.26959229 C230.83001137 553.08428528 226.53772651 542.9011535 222.234375 532.72265625 C214.01797495 513.28740347 205.83045466 493.84122203 197.72692871 474.35862732 C197.42516724 473.63313187 197.12340576 472.90763641 196.8125 472.16015625 C196.5091272 471.43075333 196.20575439 470.7013504 195.89318848 469.94984436 C191.91968162 460.39916649 187.93035163 450.85510407 183.9375 441.3125 C183.55871704 440.40722565 183.17993408 439.50195129 182.78967285 438.56924438 C177.06674321 424.89618459 171.30651465 411.23933252 165.50170898 397.60083008 C162.65680428 390.91553617 159.83252413 384.22265192 157.05322266 377.50976562 C156.12765453 375.30419299 155.16406911 373.12075258 154.1875 370.9375 C153 368 153 368 153 365 C152.34 365 151.68 365 151 365 C150.4121875 363.14375 150.4121875 363.14375 149.8125 361.25 C147.85162752 355.36738257 145.42141286 349.70456381 143 344 C141.73499321 340.93049822 140.47160354 337.86034955 139.2109375 334.7890625 C138.36818921 332.84802288 137.46022737 330.93454802 136.50390625 329.046875 C134.97852196 325.95648604 133.75584801 322.85682118 132.5625 319.625 C131.2092144 316.04443185 129.86714843 312.56369645 128.0625 309.1875 C125.64382889 304.59496255 123.99395772 299.71533701 122.21337891 294.85107422 C120.70127113 290.75853205 119.04244864 286.88998608 116.9921875 283.03515625 C115.20907909 279.37767797 113.85819903 275.54539949 112.44140625 271.734375 C110.43307616 266.43383702 108.19610454 261.22466886 106 256 C105.30910278 254.35547852 105.30910278 254.35547852 104.60424805 252.67773438 C103.62010048 250.33641155 102.63571578 247.99518839 101.65112305 245.65405273 C96.44414056 233.26976281 91.28793288 220.8660434 86.1875 208.4375 C81.26807727 196.45369053 76.28554601 184.49797545 71.25 172.5625 C70.9186203 171.77702789 70.5872406 170.99155579 70.24581909 170.18228149 C69.5687864 168.57760924 68.8917488 166.97293905 68.21470642 165.36827087 C67.8757283 164.56482742 67.53675018 163.76138397 67.1875 162.93359375 C66.84590347 162.12398697 66.50430695 161.31438019 66.15235901 160.48023987 C62.16880801 151.03523829 58.20774843 141.58083714 54.25 132.125 C53.87845795 131.2374704 53.50691589 130.3499408 53.12411499 129.43551636 C48.76621121 119.02389259 44.41808806 108.60824159 40.08203125 98.1875 C39.66955139 97.1962764 39.25707153 96.2050528 38.83209229 95.18379211 C38.21113678 93.6915638 38.21113678 93.6915638 37.57763672 92.16918945 C36.95498932 90.67290512 36.95498932 90.67290512 36.31976318 89.14639282 C35.48380032 87.13744814 34.64790316 85.12847611 33.81207275 83.11947632 C26.69291369 66.01210057 19.50425034 48.93471018 12.26586914 31.87744141 C8.94899452 24.05403855 5.64614626 16.22577289 2.4609375 8.34765625 C1.98188965 7.16308838 1.5028418 5.97852051 1.00927734 4.75805664 C0 2 0 2 0 0 Z " fill="#F84D07" transform="translate(383,64)"/>
<path d="M0 0 C2.83219439 1.4160972 2.9455268 2.99545262 4.046875 5.9453125 C4.46839844 7.05720947 4.88992187 8.16910645 5.32421875 9.31469727 C5.66912354 10.23715744 5.66912354 10.23715744 6.02099609 11.17825317 C7.32415715 14.6582409 8.65448994 18.1278106 9.984375 21.59765625 C10.28573364 22.38472458 10.58709229 23.17179291 10.89758301 23.98271179 C15.47441816 35.89138915 20.25160365 47.72149417 25 59.5625 C25.9728228 61.98958181 26.94564183 64.41666514 27.91845703 66.84375 C29.33506213 70.37749307 30.7518955 73.91114392 32.16934204 77.44454956 C34.67481571 83.69063746 37.17525455 89.9386592 39.6640625 96.19140625 C45.00011222 109.59171157 50.42035014 122.95151756 55.99462891 136.25439453 C58.85554784 143.10931859 61.50788284 150.00339534 64 157 C67.25783822 165.74255327 67.25783822 165.74255327 70.9375 174.3125 C72.74444543 178.28777996 74.29294123 182.34584858 75.8125 186.4375 C82.39839435 204.21249291 82.39839435 204.21249291 89.93359375 221.59765625 C91.99302577 226.23703607 94 230.88665396 94 236 C94.66 236 95.32 236 96 236 C96.24234375 236.76183594 96.4846875 237.52367187 96.734375 238.30859375 C97.23710937 239.85740234 97.23710937 239.85740234 97.75 241.4375 C98.07484375 242.44683594 98.3996875 243.45617187 98.734375 244.49609375 C99.98398944 247.95567448 101.42410936 251.25744556 102.93847656 254.60620117 C104.74064935 258.67020857 106.36347785 262.80464231 108 266.9375 C108.33 267.76701172 108.66 268.59652344 109 269.45117188 C109.62583863 271.02432483 110.2509559 272.59776518 110.875 274.17163086 C111.87638799 276.68922631 112.8836774 279.20435321 113.8918457 281.71923828 C115.86294612 286.64568105 117.80217558 291.58401578 119.73046875 296.52734375 C120.44974515 298.36866924 121.16906679 300.20997707 121.88842773 302.05126953 C122.26280975 303.00986877 122.63719177 303.96846802 123.0229187 304.95611572 C129.62578666 321.85977607 136.25852239 338.75126578 142.9375 355.625 C143.29583923 356.5303952 143.65417847 357.43579041 144.02337646 358.36862183 C144.73519334 360.1671114 145.44701575 361.96559879 146.15884399 363.76408386 C146.5008786 364.62826431 146.84291321 365.49244476 147.1953125 366.3828125 C147.6973671 367.65122734 147.6973671 367.65122734 148.20956421 368.94526672 C150.91955265 375.79331636 153.62045497 382.64487314 156.3125 389.5 C156.72838379 390.55872314 157.14426758 391.61744629 157.57275391 392.70825195 C160.11245486 399.17839819 162.64573882 405.65102387 165.17573547 412.12496948 C167.21984328 417.35472585 169.26573451 422.58378324 171.3125 427.8125 C171.73479889 428.89132446 172.15709778 429.97014893 172.5921936 431.08166504 C179.94605124 449.85692472 187.41638048 468.58418669 194.92349243 487.2986145 C200.66100775 501.60453081 206.343328 515.92619808 211.86914062 530.31518555 C217.220277 544.22833372 222.7904964 558.05346275 228.34765625 571.88525391 C231.20177847 578.99029721 234.04187529 586.10095603 236.88305664 593.21118164 C239.91559723 600.79806961 242.95573392 608.38187208 246.00094604 615.96368408 C247.73164359 620.27381334 249.46079484 624.58456178 251.18931389 628.89556503 C252.42703865 631.9821787 253.66601751 635.06827498 254.90673828 638.15368652 C264.57408767 662.19675463 264.57408767 662.19675463 268.08227539 672.42358398 C269.21095158 675.59222454 270.56525624 678.6196822 271.97265625 681.671875 C273.71207311 685.61367137 275.18839577 689.65708247 276.71875 693.68359375 C278.29866463 697.77306791 279.99016352 701.80978 281.6875 705.8515625 C285.86255078 715.86671407 289.77172635 725.97345227 293.55859375 736.140625 C295.65937323 741.7783021 297.81940624 747.39275889 300 753 C300.33773438 753.87140625 300.67546875 754.7428125 301.0234375 755.640625 C302.70839492 759.92715667 304.5015435 764.13300512 306.4375 768.3125 C308.78964795 773.42084586 310.82740857 778.6145077 312.8125 783.875 C313.85658347 786.62258809 314.94697374 789.34340475 316.0625 792.0625 C317.53794527 795.70667206 318.79621194 799.3824838 320 803.125 C321.17017756 806.72803682 322.43538915 810.07876042 324.1875 813.4375 C326 817 326 817 327 822 C219.09 822 111.18 822 0 822 C0 550.74 0 279.48 0 0 Z " fill="#F84E07" transform="translate(219,65)"/>
<path d="M0 0 C0.33 0 0.66 0 1 0 C1 271.26 1 542.52 1 822 C-106.58 822 -214.16 822 -325 822 C-324.32172028 818.60860141 -323.74262067 816.03986113 -322.51171875 812.92578125 C-322.21958496 812.18094482 -321.92745117 811.4361084 -321.62646484 810.66870117 C-321.31660645 809.89115479 -321.00674805 809.1136084 -320.6875 808.3125 C-320.21111084 807.10267456 -320.21111084 807.10267456 -319.72509766 805.8684082 C-317.82454386 801.04904275 -315.90464158 796.23729911 -313.96484375 791.43359375 C-312.33993401 787.3351372 -310.79633365 783.20532107 -309.24609375 779.078125 C-308 776 -308 776 -306.4375 772.87890625 C-305.23444905 770.4695352 -304.34017793 768.25238809 -303.5625 765.6875 C-302.58098895 762.62599921 -301.4751631 759.72971988 -300.125 756.8125 C-298.38001691 753.00405782 -296.94831792 749.14077369 -295.5625 745.1875 C-293.63768398 739.70148003 -291.52333016 734.34552377 -289.25 728.99609375 C-287.93824523 725.85198153 -286.71151202 722.68400504 -285.5 719.5 C-283.57742335 714.45844452 -281.54560147 709.47684875 -279.453125 704.50390625 C-276.55659725 697.51953692 -273.77973063 690.48628873 -270.98193359 683.46191406 C-270.002862 681.00717563 -269.01909619 678.55435291 -268.03515625 676.1015625 C-266.25292249 671.64748665 -264.50220726 667.1815716 -262.75634766 662.71313477 C-257.12059017 648.29957 -251.38025449 633.92869908 -245.625 619.5625 C-238.59566443 602.01159193 -231.58963856 584.45169053 -224.625 566.875 C-224.1922879 565.78299286 -223.75957581 564.69098572 -223.31375122 563.56588745 C-216.06657969 545.26992287 -208.87497875 526.95236341 -201.69274902 508.63082886 C-194.66235507 490.70250964 -187.5434507 472.81103125 -180.375 454.9375 C-174.35489356 439.92581191 -168.35532218 424.91093098 -162.55444336 409.81298828 C-157.74138274 397.28960171 -152.8391243 384.80145055 -147.9375 372.3125 C-147.49979279 371.19705811 -147.06208557 370.08161621 -146.6111145 368.93237305 C-143.7419783 361.62109675 -140.87143127 354.31037521 -138 347 C-137.68446167 346.19665222 -137.36892334 345.39330444 -137.04382324 344.56561279 C-134.87730252 339.04993764 -132.71050498 333.53437137 -130.54248047 328.01928711 C-127.34812164 319.89210355 -124.16464058 311.76068894 -120.98950195 303.62597656 C-118.35681578 296.88781699 -115.67837815 290.16871977 -112.9765625 283.45800781 C-109.68664565 275.28593871 -106.50694165 267.06996532 -103.4375 258.8125 C-102.03042917 255.04186636 -100.53868345 251.307311 -99.03515625 247.57421875 C-98.35010438 245.87063693 -97.67033034 244.16492238 -96.99609375 242.45703125 C-95.43571051 238.51017952 -93.83708716 234.60562913 -92.0625 230.75 C-90.35172639 226.96090377 -88.94021557 223.109684 -87.5625 219.1875 C-84.85544929 211.48726124 -81.74192201 204.01183593 -78.4921875 196.52734375 C-75.82577782 190.37048321 -73.25854897 184.22935037 -71.0546875 177.890625 C-68.3228736 170.40343135 -65.21598522 163.04833197 -62.22216797 155.66259766 C-61.48325369 153.8380323 -60.7444167 152.01343565 -60.00564575 150.18881226 C-59.61787083 149.23109295 -59.2300959 148.27337364 -58.83057022 147.28663254 C-48.45434079 121.65294425 -38.1630128 95.98560274 -27.89697266 70.30761719 C-25.55071755 64.43907333 -23.2028591 58.57117236 -20.85458565 52.7034359 C-19.01115842 48.09667787 -17.16855509 43.48959065 -15.32619858 38.88240433 C-14.45976826 36.71599885 -13.59308924 34.54969283 -12.72613907 32.38349533 C-8.41665403 21.61437698 -4.11201932 10.8464744 0 0 Z " fill="#F84E07" transform="translate(1034,65)"/>
<path d="M0 0 C5.37466219 3.35916387 10.14428962 7.38647687 13.6875 12.6796875 C13.6875 13.3396875 13.6875 13.9996875 13.6875 14.6796875 C11.76162421 16.31108687 9.84423283 17.81691975 7.8125 19.3046875 C7.25691406 19.72492187 6.70132813 20.14515625 6.12890625 20.578125 C1.94985288 23.6796875 1.94985288 23.6796875 -0.3125 23.6796875 C-0.951875 22.8340625 -1.59125 21.9884375 -2.25 21.1171875 C-7.14438867 14.98463503 -14.79840949 10.66814911 -22.3125 8.6796875 C-33.44127224 7.77339228 -44.95787586 8.01413469 -54.18359375 14.86328125 C-62.00134737 21.53347471 -68.25791531 29.28558039 -69.57861328 39.79785156 C-70.62150421 53.27118898 -68.24157623 65.12151884 -59.3125 75.6796875 C-50.82540843 83.71820129 -40.73980177 87.03389881 -29.21875 86.89453125 C-19.87525847 86.20381615 -11.48707241 82.31829569 -5.0625 75.4921875 C-1.55335697 70.95127745 -1.55335697 70.95127745 1.6875 61.6796875 C-8.5425 61.6796875 -18.7725 61.6796875 -29.3125 61.6796875 C-29.3125 56.0696875 -29.3125 50.4596875 -29.3125 44.6796875 C-12.8125 44.6796875 3.6875 44.6796875 20.6875 44.6796875 C20.6875 49.9596875 20.6875 55.2396875 20.6875 60.6796875 C20.0275 60.6796875 19.3675 60.6796875 18.6875 60.6796875 C18.77 61.6284375 18.8525 62.5771875 18.9375 63.5546875 C18.87669103 73.62870759 12.19652913 82.72063785 5.69140625 89.875 C-5.09993807 100.29013231 -18.72033334 104.10256337 -33.30493164 104.04541016 C-48.06110317 103.71739492 -61.52952977 97.97505943 -72.25 87.8671875 C-83.61612197 75.81220966 -89.02481977 60.57477558 -88.6171875 44.1640625 C-87.77930611 28.0296523 -80.41640675 14.69314479 -68.72265625 3.7578125 C-48.57451549 -13.61465247 -22.29715591 -12.44924538 0 0 Z " fill="#090909" transform="translate(463.3125,963.3203125)"/>
<path d="M0 0 C7.875 6.75 7.875 6.75 10.42332458 9.30307007 C11.29600227 10.17368576 11.29600227 10.17368576 12.18630981 11.06188965 C12.7969931 11.67616821 13.40767639 12.29044678 14.03686523 12.92333984 C14.70113022 13.5874588 15.3653952 14.25157776 16.04978943 14.93582153 C18.22177269 17.10849559 20.39020279 19.28467872 22.55859375 21.4609375 C24.07294682 22.97715772 25.58752237 24.49315576 27.10231018 26.00894165 C31.07138372 29.98181703 35.03744381 33.95768731 39.00286865 37.9342041 C43.77058991 42.71399736 48.54207254 47.49003547 53.31291962 52.26670837 C60.54482078 59.50827741 67.77194913 66.75457864 75 74 C75.33 50.9 75.66 27.8 76 4 C81.61 4 87.22 4 93 4 C93 40.63 93 77.26 93 115 C90.69 113.02 88.38 111.04 86 109 C85.29996857 108.4028418 84.59993713 107.80568359 83.87869263 107.19042969 C78.73734883 102.75696175 73.91006088 98.0554554 69.1171875 93.25 C68.29928741 92.43305664 67.48138733 91.61611328 66.63870239 90.77441406 C64.92148064 89.05786873 63.20550468 87.3400763 61.49072266 85.62109375 C58.87905015 83.00405846 56.26207417 80.39241226 53.64453125 77.78125 C51.96842924 76.10448724 50.29263742 74.42741434 48.6171875 72.75 C47.84204803 71.97688477 47.06690857 71.20376953 46.26828003 70.40722656 C42.41710838 66.53952764 38.71533842 62.62988275 35.24758911 58.4128418 C33.90241433 56.80647083 33.90241433 56.80647083 31.5625 55.0625 C28.60874312 52.68508593 26.34838709 50.01503303 23.94140625 47.09765625 C21.52987403 44.49203693 18.72742787 42.27285656 16 40 C16 63.43 16 86.86 16 111 C10.72 111 5.44 111 0 111 C0 74.37 0 37.74 0 0 Z " fill="#060505" transform="translate(748,953)"/>
<path d="M0 0 C0.66 0 1.32 0 2 0 C2.35715088 0.80518066 2.71430176 1.61036133 3.08227539 2.43994141 C4.44215905 5.50148712 5.8049935 8.56168649 7.16967773 11.62109375 C7.75349918 12.9314592 8.33622729 14.24231246 8.91772461 15.55371094 C12.55064596 23.74429725 16.33807818 31.81700533 20.41967773 39.79443359 C22.07696192 43.15611154 23.54652981 46.54600751 25 50 C25.80698883 51.77335162 26.61916339 53.5443563 27.4375 55.3125 C29.02515539 58.77990169 30.51049135 62.25189373 31.875 65.8125 C34.00485661 71.25450098 36.65149668 76.41215945 39.31640625 81.60546875 C41.01172975 85.02365001 42.51478175 88.48619098 44 92 C45.22841194 94.65906243 46.47001043 97.31136828 47.71875 99.9609375 C49.37337177 103.88561963 50.6531183 107.95935491 52 112 C45.73 112 39.46 112 33 112 C32.2575 110.185 31.515 108.37 30.75 106.5 C29.19860519 102.76254886 27.60319454 99.09737763 25.75 95.5 C24 92 24 92 23 88 C8.15 87.67 -6.7 87.34 -22 87 C-22.99 89.97 -23.98 92.94 -25 96 C-25.58061084 97.47077506 -26.18089441 98.93446102 -26.82421875 100.37890625 C-27.23933716 101.31972046 -27.23933716 101.31972046 -27.6628418 102.27954102 C-28.000979 103.03291748 -28.33911621 103.78629395 -28.6875 104.5625 C-30.3271875 108.2440625 -30.3271875 108.2440625 -32 112 C-38.27 112 -44.54 112 -51 112 C-49.44998593 107.3499578 -47.72672193 103.08697725 -45.61328125 98.69921875 C-45.27970108 97.99869888 -44.94612091 97.29817902 -44.60243225 96.57643127 C-43.88373449 95.06720218 -43.16365291 93.55863143 -42.44232178 92.05065918 C-36.28717143 79.17641623 -30.24595958 66.25621873 -24.375 53.25 C-18.61398006 40.49064093 -12.72468275 27.79635309 -6.74560547 15.13769531 C-6.44180466 14.4933252 -6.13800385 13.84895508 -5.82499695 13.18505859 C-5.00664815 11.44989393 -4.1863797 9.71563499 -3.3659668 7.98144531 C-2.1588972 5.34681906 -1.04706954 2.70150836 0 0 Z " fill="#080707" transform="translate(679,953)"/>
<path d="M0 0 C20.46 0 40.92 0 62 0 C62 4.95 62 9.9 62 15 C47.15 15 32.3 15 17 15 C17 23.91 17 32.82 17 42 C30.86 42 44.72 42 59 42 C59 47.28 59 52.56 59 58 C45.14 58 31.28 58 17 58 C17 69.22 17 80.44 17 92 C31.85 92 46.7 92 62 92 C62 97.28 62 102.56 62 108 C41.54 108 21.08 108 0 108 C0 72.36 0 36.72 0 0 Z " fill="#060606" transform="translate(974,957)"/>
<path d="M0 0 C0.91523437 0.00515625 1.83046875 0.0103125 2.7734375 0.015625 C10.40811092 0.36153253 18.54916084 3.54916084 24 9 C24.22705078 10.97119141 24.22705078 10.97119141 24.1953125 13.3515625 C24.18886719 14.20234375 24.18242188 15.053125 24.17578125 15.9296875 C24.15064453 17.26386719 24.15064453 17.26386719 24.125 18.625 C24.11597656 19.5221875 24.10695313 20.419375 24.09765625 21.34375 C24.0740497 23.56276586 24.0411231 25.78125077 24 28 C22.948125 27.39414062 21.89625 26.78828125 20.8125 26.1640625 C7.85925092 18.7687216 -3.08979971 14.92774782 -18.125 18.0625 C-27.62031516 20.74353016 -34.33532841 26.12888492 -39.59375 34.42578125 C-45.15046174 44.5976508 -45.92559989 57.30615867 -43.12109375 68.51171875 C-38.91111545 79.36318096 -32.57660239 87.01412098 -22 92 C-12.87052498 95.7591956 -0.41934995 96.08719234 8.7265625 92.28125 C12.62764919 90.41536188 16.31062266 88.25160529 20 86 C21.32 85.34 22.64 84.68 24 84 C24 90.27 24 96.54 24 103 C9.43144056 111.32489111 -5.53540719 114.73646425 -22.125 110.4375 C-38.07420809 105.37170214 -49.48315074 95.85612557 -57.1875 81.1875 C-63.51210546 67.85768848 -65.44952634 53.51295654 -61.4375 39.125 C-56.20831943 24.63998762 -46.77565386 12.28761788 -33 5 C-22.03955167 0.17864296 -11.85558332 -0.24959123 0 0 Z " fill="#080807" transform="translate(927,955)"/>
<path d="M0 0 C6.27 0 12.54 0 19 0 C20.68948331 4.06168147 22.37710076 8.12412344 24.0625 12.1875 C24.45341827 13.12949249 24.45341827 13.12949249 24.85223389 14.09051514 C28.29719954 22.39711906 31.70375515 30.71830957 35.06640625 39.05859375 C35.40468948 39.89688217 35.74297272 40.73517059 36.09150696 41.59886169 C37.7647944 45.74665826 39.43408504 49.89600239 41.09790039 54.04760742 C41.71358024 55.57605914 42.32937853 57.10446317 42.9453125 58.6328125 C43.2250441 59.334702 43.5047757 60.03659149 43.79298401 60.75975037 C44.9989233 63.74388135 46.20651539 66.30977308 48 69 C48.27674561 68.33581055 48.55349121 67.67162109 48.83862305 66.98730469 C51.00048828 61.79882812 53.16235352 56.61035156 55.32421875 51.421875 C55.98478271 49.83644897 55.98478271 49.83644897 56.65869141 48.21899414 C57.56187339 46.05145603 58.46519642 43.88397668 59.36865234 41.71655273 C59.80516113 40.66927002 60.24166992 39.6219873 60.69140625 38.54296875 C61.08142822 37.60735107 61.4714502 36.6717334 61.87329102 35.70776367 C63.00243604 32.99414558 64.12663321 30.27851435 65.25 27.5625 C69.08873259 18.34213588 73.05643776 9.17587032 77 0 C83.27 0 89.54 0 96 0 C93.98549252 5.37201994 91.905362 10.59260861 89.5625 15.8125 C87.09690912 21.35749229 84.84536096 26.90658391 82.921875 32.66796875 C82 35 82 35 80.640625 37.17578125 C78.78980341 40.36183841 77.52803118 43.58776582 76.19189453 47.01513672 C74.83808606 50.40548132 73.39740221 53.75383425 71.93359375 57.09765625 C71.65579575 57.73232819 71.37799774 58.36700012 71.09178162 59.02090454 C70.20841288 61.03538403 69.32315339 63.04902399 68.4375 65.0625 C67.81788339 66.47295142 67.19833674 67.88343358 66.57885742 69.29394531 C65.63699001 71.43841611 64.69496693 73.58281717 63.75221252 75.72689819 C61.73534538 80.31606515 59.73426295 84.91173476 57.7421875 89.51171875 C57.24533447 90.65439209 56.74848145 91.79706543 56.23657227 92.97436523 C55.30860264 95.10887036 54.38442039 97.24502729 53.46459961 99.38305664 C53.04960205 100.3343042 52.63460449 101.28555176 52.20703125 102.265625 C51.8510083 103.08836914 51.49498535 103.91111328 51.12817383 104.75878906 C49.96699335 107.06557046 48.60964175 108.98614458 47 111 C41.58151594 99.70403357 36.50014142 88.31586901 31.6875 76.75 C30.6605996 74.29336579 29.6324435 71.83725946 28.60421753 69.38117981 C27.88155701 67.65478771 27.15933359 65.92821257 26.43753052 64.20146179 C23.60486152 57.42908009 20.74598349 50.66803427 17.87890625 43.91015625 C17.01666011 41.87598624 16.15443668 39.8418066 15.29223633 37.80761719 C14.0323305 34.83538986 12.77168307 31.86349053 11.50839233 28.8927002 C3.38972779 9.79558435 3.38972779 9.79558435 0 0 Z " fill="#070707" transform="translate(219,957)"/>
<path d="M0 0 C9.01585199 4.51419571 14.54889527 12.13347149 17.90234375 21.5 C20.05420329 29.59509064 18.42840215 37.93541003 14.3046875 45.16796875 C8.98313485 52.78054407 1.79197381 58.2849348 -7.44140625 59.96875 C-17.96646746 61.07924884 -25.34670091 59.74081963 -33.69140625 53.20703125 C-38.88349803 48.50169807 -41.35942012 43.59111268 -43.44140625 36.96875 C-43.93640625 35.48375 -43.93640625 35.48375 -44.44140625 33.96875 C-44.91320878 24.68996684 -43.04499957 16.50788401 -37.44140625 8.96875 C-26.84268367 -1.14110161 -14.13360912 -4.23526993 0 0 Z " fill="#F8F8F8" transform="translate(436.44140625,1106.03125)"/>
<path d="M0 0 C5.61 0 11.22 0 17 0 C17 30.36 17 60.72 17 92 C32.84 92 48.68 92 65 92 C65 97.28 65 102.56 65 108 C43.55 108 22.1 108 0 108 C0 72.36 0 36.72 0 0 Z " fill="#070706" transform="translate(550,957)"/>
<path d="M0 0 C5.61 0 11.22 0 17 0 C17 35.97 17 71.94 17 109 C11.06 109 5.12 109 -1 109 C-1.02312023 94.93582285 -1.04091345 80.87165018 -1.05181217 66.80745792 C-1.0570417 60.27763767 -1.06414061 53.74783037 -1.07543945 47.21801758 C-1.08626585 40.92218841 -1.09227631 34.62637174 -1.09487724 28.33053398 C-1.09673194 25.92265056 -1.1003534 23.51476786 -1.10573006 21.10688972 C-1.1129372 17.74710714 -1.11399108 14.3873769 -1.11352539 11.02758789 C-1.11712067 10.02130341 -1.12071594 9.01501892 -1.12442017 7.97824097 C-1.1230455 7.06813766 -1.12167084 6.15803436 -1.12025452 5.22035217 C-1.12163721 4.02709116 -1.12163721 4.02709116 -1.12304783 2.80972385 C-1 1 -1 1 0 0 Z " fill="#111111" transform="translate(506,956)"/>
<path d="M0 0 C5.61 0 11.22 0 17 0 C18 1 18 1 18.12304783 2.80972385 C18.12166514 4.00298487 18.12166514 4.00298487 18.12025452 5.22035217 C18.12162918 6.13045547 18.12300385 7.04055878 18.12442017 7.97824097 C18.12082489 8.98452545 18.11722961 9.99080994 18.11352539 11.02758789 C18.11367142 12.08111954 18.11381744 13.13465118 18.1139679 14.22010803 C18.11326826 17.720978 18.10547348 21.22179552 18.09765625 24.72265625 C18.09579225 27.14261343 18.09436826 29.56257099 18.09336853 31.98252869 C18.08954192 38.36615024 18.07971041 44.74974921 18.06866455 51.13336182 C18.05845351 57.64163914 18.05387157 64.1499201 18.04882812 70.65820312 C18.03808827 83.43881203 18.02101014 96.21940414 18 109 C12.06 109 6.12 109 0 109 C0 73.03 0 37.06 0 0 Z " fill="#101010" transform="translate(335,956)"/>
<path d="M0 0 C4.12533318 2.06266659 6.46555795 4.43176262 9.4375 7.8125 C10.37256284 8.86168979 11.30875276 9.90987625 12.24609375 10.95703125 C12.65529053 11.42085205 13.0644873 11.88467285 13.48608398 12.36254883 C15.59279676 14.64116883 17.79826559 16.81322412 20 19 C27.33333333 26.33333333 34.66666667 33.66666667 42 41 C42.33 27.8 42.66 14.6 43 1 C45.97 1 48.94 1 52 1 C52 21.46 52 41.92 52 63 C51.34 63 50.68 63 50 63 C48.55125427 61.52877808 48.55125427 61.52877808 46.86889648 59.49560547 C43.1502204 55.1249354 39.18737327 51.09182602 35.09765625 47.0703125 C33.61640969 45.60169035 32.13529352 44.13293668 30.65429688 42.6640625 C28.34291907 40.37766588 26.02995354 38.09291719 23.71459961 35.81054688 C21.46297693 33.58893953 19.21746068 31.36130595 16.97265625 29.1328125 C16.27278091 28.44639679 15.57290558 27.75998108 14.8518219 27.05276489 C14.21373093 26.41805267 13.57563995 25.78334045 12.91821289 25.12939453 C12.35308487 24.57172394 11.78795685 24.01405334 11.20570374 23.43948364 C10 22 10 22 10 20 C9.34 20 8.68 20 8 20 C8 33.53 8 47.06 8 61 C5.36 61 2.72 61 0 61 C0 40.87 0 20.74 0 0 Z " fill="#0E0E0E" transform="translate(476,1104)"/>
<path d="M0 0 C3.45222243 1.72611122 5.08159934 2.83578313 7.6953125 5.46826172 C8.75661377 6.52978958 8.75661377 6.52978958 9.83935547 7.61276245 C10.97074951 8.75964035 10.97074951 8.75964035 12.125 9.9296875 C12.90891113 10.71642853 13.69282227 11.50316956 14.50048828 12.31375122 C17.00505995 14.82951069 19.50259844 17.35212456 22 19.875 C23.68183065 21.56686466 25.36411716 23.25827629 27.046875 24.94921875 C30.76188566 28.68387503 34.47247077 32.42286491 38.17919922 36.16574097 C40.11454487 38.11539151 42.05748874 40.05748874 44 42 C44 28.47 44 14.94 44 1 C46.64 1 49.28 1 52 1 C52 21.46 52 41.92 52 63 C46.52683974 58.62147179 41.83566516 53.85365292 37.08813477 48.73242188 C28.29170201 39.24550011 19.18608493 30.11016688 10 21 C9.67 34.2 9.34 47.4 9 61 C6.03 61 3.06 61 0 61 C0 40.87 0 20.74 0 0 Z " fill="#0E0E0D" transform="translate(809,1104)"/>
<path d="M0 0 C9.01585199 4.51419571 14.54889527 12.13347149 17.90234375 21.5 C20.05420329 29.59509064 18.42840215 37.93541003 14.3046875 45.16796875 C8.98313485 52.78054407 1.79197381 58.2849348 -7.44140625 59.96875 C-17.96646746 61.07924884 -25.34670091 59.74081963 -33.69140625 53.20703125 C-38.88349803 48.50169807 -41.35942012 43.59111268 -43.44140625 36.96875 C-43.93640625 35.48375 -43.93640625 35.48375 -44.44140625 33.96875 C-44.91320878 24.68996684 -43.04499957 16.50788401 -37.44140625 8.96875 C-26.84268367 -1.14110161 -14.13360912 -4.23526993 0 0 Z M-31.44140625 14.96875 C-35.40429968 20.19415815 -36.12362597 25.46594367 -35.89453125 31.9296875 C-34.97684302 38.08452751 -32.38494378 43.02521247 -28.00390625 47.40625 C-27.15828125 47.921875 -26.31265625 48.4375 -25.44140625 48.96875 C-24.17296875 49.835 -24.17296875 49.835 -22.87890625 50.71875 C-16.98153438 52.86324886 -10.81355323 53.1535584 -4.83984375 51.0546875 C1.40577698 47.81699114 4.90067968 43.88439199 8.37109375 37.78125 C10.36640353 31.37525546 10.77140783 24.90070668 7.99609375 18.65625 C4.43031417 12.55063443 -0.77815677 8.60033829 -7.47265625 6.4375 C-16.86739497 4.20065745 -25.18436179 8.0147183 -31.44140625 14.96875 Z " fill="#0E0E0E" transform="translate(436.44140625,1106.03125)"/>
<path d="M0 0 C2.1985819 1.20506465 4.08355049 2.47413858 6.0234375 4.05859375 C6.63832031 4.53554687 7.25320313 5.0125 7.88671875 5.50390625 C9.30320663 6.64360914 10.6703566 7.84429038 12.0234375 9.05859375 C10.87170395 11.52659422 9.97560185 13.1064294 8.0234375 15.05859375 C3.72148714 14.62110727 0.66045745 11.86852577 -2.7578125 9.43359375 C-7.09765592 6.74411332 -11.96159811 6.29693534 -16.9765625 7.05859375 C-24.59186735 9.81428214 -28.8824168 13.16946601 -32.7265625 20.30859375 C-35.18101309 27.67194553 -34.41180185 33.67475423 -31.31640625 40.7578125 C-28.51387314 45.57032563 -24.11532816 48.97683102 -18.9765625 51.05859375 C-12.51841956 51.85202274 -6.37001544 51.73879745 -0.6640625 48.3984375 C3.59905477 45.01360134 5.71705533 41.28412245 7.0234375 36.05859375 C1.0834375 36.05859375 -4.8565625 36.05859375 -10.9765625 36.05859375 C-10.9765625 33.41859375 -10.9765625 30.77859375 -10.9765625 28.05859375 C-2.0665625 28.05859375 6.8434375 28.05859375 16.0234375 28.05859375 C16.0234375 38.72887903 14.34540018 45.53059802 7.03125 53.3671875 C3.72374244 56.15347305 0.05469118 57.60537196 -3.9765625 59.05859375 C-4.9665625 59.55359375 -4.9665625 59.55359375 -5.9765625 60.05859375 C-16.53162041 60.98216132 -24.52022513 60.19375011 -33 53.44921875 C-38.79568026 48.11817108 -42.70837292 41.25729946 -43.21484375 33.328125 C-43.59211635 18.13650129 -43.59211635 18.13650129 -38.9765625 12.05859375 C-38.2753125 11.02734375 -37.5740625 9.99609375 -36.8515625 8.93359375 C-28.00053499 -1.16210951 -12.52155695 -3.96022995 0 0 Z " fill="#0E0E0E" transform="translate(925.9765625,1105.94140625)"/>
<path d="M0 0 C0.33 0 0.66 0 1 0 C1 271.26 1 542.52 1 822 C-106.58 822 -214.16 822 -325 822 C-324.67 821.01 -324.34 820.02 -324 819 C-324 819.66 -324 820.32 -324 821 C-217.08 821 -110.16 821 0 821 C0 552.38 0 283.76 0 7 C-0.66 7 -1.32 7 -2 7 C-1.34 4.69 -0.68 2.38 0 0 Z " fill="#FA651E" transform="translate(1034,65)"/>
<path d="M0 0 C6.15234375 -0.09765625 6.15234375 -0.09765625 8 0 C9.53304496 1.53304496 9.13955878 2.93679412 9.15771484 5.07324219 C9.16797699 5.93794128 9.17823914 6.80264038 9.18881226 7.69354248 C9.19611359 8.63514221 9.20341492 9.57674194 9.2109375 10.546875 C9.23901398 12.52604983 9.2676785 14.50521638 9.296875 16.484375 C9.33810488 19.61588238 9.37497671 22.74723669 9.40136719 25.87890625 C9.42899831 28.8935574 9.47488129 31.90749795 9.5234375 34.921875 C9.52669037 35.85537781 9.52994324 36.78888062 9.53329468 37.75067139 C9.62521504 42.61848305 9.77406666 46.08104483 13 50 C17.04406224 52.42643735 21.39791385 52.5594693 26 52 C30.12124215 50.67809214 31.56208983 49.80779102 33.63598633 45.98217773 C35.43208579 41.48783931 35.47616218 37.13697797 35.51171875 32.34765625 C35.52966995 31.44752304 35.54762115 30.54738983 35.56611633 29.61997986 C35.61995245 26.76753309 35.65402888 23.91525107 35.6875 21.0625 C35.72069668 19.11911783 35.7551885 17.17575733 35.79101562 15.23242188 C35.87566341 10.48840064 35.94260136 5.744426 36 1 C38.64 1 41.28 1 44 1 C44.12438696 7.08309628 44.21470951 13.16543851 44.2746582 19.24951172 C44.29967089 21.31539826 44.33369236 23.38119748 44.37719727 25.44677734 C44.43843558 28.43088424 44.4663426 31.41381287 44.48828125 34.3984375 C44.51408768 35.30927094 44.5398941 36.22010437 44.56648254 37.15853882 C44.56942787 44.02288067 42.80110263 49.25999684 39 55 C32.83532408 60.2465327 26.57891045 61.44147402 18.67578125 61.23828125 C11.63405552 60.61120786 7.92683196 57.32801558 3.48046875 52.23046875 C-0.39555031 46.39087275 -0.2701013 40.53778483 -0.1953125 33.7890625 C-0.1924826 32.82092621 -0.18965271 31.85278992 -0.18673706 30.85531616 C-0.17558696 27.77841572 -0.1504918 24.70181172 -0.125 21.625 C-0.11496352 19.5325563 -0.10583884 17.44010802 -0.09765625 15.34765625 C-0.07566453 10.23165749 -0.04117025 5.11587892 0 0 Z " fill="#0E0E0E" transform="translate(608,1105)"/>
<path d="M0 0 C2.53427979 1.42583757 4.37000008 2.7299433 6.02734375 5.140625 C6.15234375 7.265625 6.15234375 7.265625 5.02734375 9.140625 C1.96484375 10.390625 1.96484375 10.390625 -0.97265625 11.140625 C-1.59140625 10.50125 -2.21015625 9.861875 -2.84765625 9.203125 C-5.40527419 6.72073112 -6.29632793 6.19943616 -9.84765625 5.890625 C-12.92796884 5.96183543 -12.92796884 5.96183543 -15.34765625 7.203125 C-17.28402933 9.16714021 -17.28402933 9.16714021 -17.47265625 12.578125 C-17.23360804 16.07605109 -17.23360804 16.07605109 -15.53515625 18.390625 C-13.12993772 20.03321327 -11.46543744 20.69136951 -8.72265625 21.515625 C-1.670944 23.65321158 3.89879858 28.03037815 8.02734375 34.140625 C9.71209008 39.19486398 9.60753689 43.42518032 7.40234375 48.265625 C4.595165 53.40216483 0.47297144 56.9198903 -4.97265625 59.140625 C-11.18069448 59.99464084 -17.22227051 60.32262491 -22.53515625 56.640625 C-26.12800613 53.44276073 -28.48983616 49.71590541 -29.97265625 45.140625 C-29.97265625 44.150625 -29.97265625 43.160625 -29.97265625 42.140625 C-26.60168242 40.64241441 -24.76823506 40.140625 -20.97265625 40.140625 C-20.77929688 40.69492188 -20.5859375 41.24921875 -20.38671875 41.8203125 C-20.12632812 42.54476563 -19.8659375 43.26921875 -19.59765625 44.015625 C-19.34242188 44.73492188 -19.0871875 45.45421875 -18.82421875 46.1953125 C-18.03387842 48.32220494 -18.03387842 48.32220494 -15.97265625 50.140625 C-10.97133967 50.98155434 -7.11590577 50.89516969 -2.84765625 48.078125 C-0.47088606 44.35451837 -0.197318 42.48251923 -0.97265625 38.140625 C-4.86596712 32.90898852 -10.33814036 30.76329453 -16.125 28.1796875 C-21.23693107 25.79983132 -24.38042842 23.32508065 -26.97265625 18.140625 C-27.56372112 12.45730892 -27.24509041 7.99285497 -23.97265625 3.140625 C-16.52422295 -3.9157855 -9.03864125 -4.38798994 0 0 Z " fill="#121212" transform="translate(578.97265625,1106.859375)"/>
<path d="M0 0 C2.43359375 1.10546875 2.43359375 1.10546875 5.80859375 3.10546875 C5.80859375 6.73546875 5.80859375 10.36546875 5.80859375 14.10546875 C5.17695313 13.67234375 4.5453125 13.23921875 3.89453125 12.79296875 C-3.74307476 8.03872409 -10.25784846 6.66491912 -19.19140625 8.10546875 C-24.40583984 10.08808183 -28.17707762 13.40311609 -31.19140625 18.10546875 C-33.44875435 24.8622607 -33.55836413 34.17504772 -30.56640625 40.66796875 C-27.64644013 45.50351548 -23.39865869 48.9214746 -18.19140625 51.10546875 C-10.94169017 52.20566528 -5.59469098 50.89208067 0.71484375 47.296875 C2.80859375 46.10546875 2.80859375 46.10546875 5.80859375 45.10546875 C5.80859375 48.40546875 5.80859375 51.70546875 5.80859375 55.10546875 C3.52994792 56.11458333 1.25130208 57.12369792 -1.02734375 58.1328125 C-2.4282441 58.76245905 -3.81765909 59.41859517 -5.19140625 60.10546875 C-15.71400255 61.02619593 -23.8095481 60.29226852 -32.21484375 53.4609375 C-38.83533368 47.27343319 -41.72830508 41.08782482 -42.4296875 32.02734375 C-42.64347013 22.89094942 -41.06294182 16.49722904 -36.06640625 8.85546875 C-26.11369931 -0.6645118 -13.30760132 -3.73003758 0 0 Z " fill="#121212" transform="translate(369.19140625,1105.89453125)"/>
<path d="M0 0 C13.2 0 26.4 0 40 0 C40 2.97 40 5.94 40 9 C34.72 9 29.44 9 24 9 C24 25.83 24 42.66 24 60 C21.03 60 18.06 60 15 60 C15 42.84 15 25.68 15 8 C10.05 8 5.1 8 0 8 C0 5.36 0 2.72 0 0 Z " fill="#191919" transform="translate(718,1105)"/>
<path d="M0 0 C2.64 0 5.28 0 8 0 C8 16.83 8 33.66 8 51 C15.92 51 23.84 51 32 51 C32 53.64 32 56.28 32 59 C21.44 59 10.88 59 0 59 C0 39.53 0 20.06 0 0 Z " fill="#090909" transform="translate(677,1106)"/>
<path d="M0 0 C0.66 0 1.32 0 2 0 C3.78083874 3.95390484 5.54779487 7.91387122 7.3125 11.875 C7.81201172 12.98359375 8.31152344 14.0921875 8.82617188 15.234375 C9.55610352 16.87792969 9.55610352 16.87792969 10.30078125 18.5546875 C10.74591064 19.54968262 11.19104004 20.54467773 11.6496582 21.56982422 C13.37338551 25.94848425 14.64781829 30.49272764 16 35 C5.77 35 -4.46 35 -15 35 C-13.497696 30.49308801 -11.90538782 26.37860439 -9.9609375 22.0703125 C-9.53235947 21.11751907 -9.53235947 21.11751907 -9.09512329 20.14547729 C-8.19112893 18.13741538 -7.28313664 16.13119146 -6.375 14.125 C-5.7575463 12.75532831 -5.14035619 11.38553775 -4.5234375 10.015625 C-3.01866963 6.67570388 -1.51031328 3.33741779 0 0 Z " fill="#ECECEC" transform="translate(679,990)"/>
<path d="M0 0 C2.64 0 5.28 0 8 0 C8 19.47 8 38.94 8 59 C5.36 59 2.72 59 0 59 C0 39.53 0 20.06 0 0 Z " fill="#060606" transform="translate(777,1106)"/>
<path d="M0 0 C4 2 4 2 5 4 C4.01 4.33 3.02 4.66 2 5 C1.67 23.15 1.34 41.3 1 60 C3.31 60 5.62 60 8 60 C8 60.33 8 60.66 8 61 C5.36 61 2.72 61 0 61 C0 40.87 0 20.74 0 0 Z " fill="#2B2B2B" transform="translate(476,1104)"/>
<path d="M0 0 C1.32 1.32 2.64 2.64 4 4 C3.67 4.66 3.34 5.32 3 6 C2.34 6 1.68 6 1 6 C1 17.55 1 29.1 1 41 C0.67 41 0.34 41 0 41 C0 27.47 0 13.94 0 0 Z " fill="#E5E5E6" transform="translate(818,1124)"/>
<path d="M0 0 C1.03253906 0.01353516 1.03253906 0.01353516 2.0859375 0.02734375 C3.76577838 0.05067487 5.44543746 0.08653674 7.125 0.125 C7.125 0.455 7.125 0.785 7.125 1.125 C6.34253906 1.17398438 5.56007813 1.22296875 4.75390625 1.2734375 C3.74199219 1.34820313 2.73007812 1.42296875 1.6875 1.5 C0.67816406 1.56960938 -0.33117187 1.63921875 -1.37109375 1.7109375 C-2.19738281 1.84757813 -3.02367187 1.98421875 -3.875 2.125 C-4.205 2.785 -4.535 3.445 -4.875 4.125 C-10.875 4.125 -10.875 4.125 -13.875 2.125 C-9.17038677 0.26367327 -4.9992304 -0.1259496 0 0 Z " fill="#646464" transform="translate(429.875,953.875)"/>
<path d="M0 0 C4.41309542 3.15221101 7.00793014 6.55463907 10 11 C7 11 7 11 5.17578125 9.35546875 C4.56089844 8.64003906 3.94601562 7.92460938 3.3125 7.1875 C2.37857422 6.12595703 2.37857422 6.12595703 1.42578125 5.04296875 C0 3 0 3 0 0 Z " fill="#1C1B1C" transform="translate(481,1108)"/>
<path d="M0 0 C4.23429756 1.31061591 8.07407404 2.94356259 12 5 C8.52128379 6.15957207 7.65780355 5.77456651 4.3125 4.5625 C3.50425781 4.27503906 2.69601562 3.98757813 1.86328125 3.69140625 C1.24839844 3.46324219 0.63351562 3.23507812 0 3 C0 2.01 0 1.02 0 0 Z " fill="#202020" transform="translate(937,957)"/>
<path d="M0 0 C0 0.33 0 0.66 0 1 C-1.65 1 -3.3 1 -5 1 C-5.2475 1.639375 -5.495 2.27875 -5.75 2.9375 C-7 5 -7 5 -9.125 5.75 C-10.053125 5.87375 -10.053125 5.87375 -11 6 C-8.60159776 0.46522561 -5.82500047 -0.25888891 0 0 Z " fill="#D1D1D2" transform="translate(572,1112)"/>
<path d="M0 0 C0.99 0.99 1.98 1.98 3 3 C2.67 3.33 2.34 3.66 2 4 C1.76346477 6.52596259 1.57826308 9.03107207 1.4375 11.5625 C1.39431641 12.27341797 1.35113281 12.98433594 1.30664062 13.71679688 C1.20028223 15.47761912 1.09961154 17.2387832 1 19 C0.67 19 0.34 19 0 19 C0 12.73 0 6.46 0 0 Z " fill="#0F0F0F" transform="translate(748,953)"/>
<path d="M0 0 C2.97 0 5.94 0 9 0 C8.67 0.99 8.34 1.98 8 3 C5.125 3.1875 5.125 3.1875 2 3 C1.34 2.01 0.68 1.02 0 0 Z " fill="#EBECEC" transform="translate(419,1166)"/>
<path d="M0 0 C0.66 0.33 1.32 0.66 2 1 C-1.17320782 4.53586014 -3.16743695 6.58578031 -8 7 C-5.42215154 4.35247996 -3.08351902 2.05567935 0 0 Z " fill="#242324" transform="translate(892,961)"/>
<path d="M0 0 C0.66 0 1.32 0 2 0 C2.99 2.31 3.98 4.62 5 7 C4.01 7.33 3.02 7.66 2 8 C-0.1519437 4.77208445 -0.20086443 3.71599191 0 0 Z " fill="#EBEBEB" transform="translate(561,1118)"/>
<path d="M0 0 C0.33 0 0.66 0 1 0 C1 4.62 1 9.24 1 14 C0.67 14 0.34 14 0 14 C0 11.69 0 9.38 0 7 C-0.66 7 -1.32 7 -2 7 C-1.34 4.69 -0.68 2.38 0 0 Z " fill="#FA6A2E" transform="translate(1034,65)"/>
<path d="M0 0 C0.99 0.495 0.99 0.495 2 1 C2.73075648 3.3140622 3.40138258 5.64828869 4 8 C2.68 7.67 1.36 7.34 0 7 C0 4.69 0 2.38 0 0 Z " fill="#FB571C" transform="translate(220,68)"/>
<path d="M0 0 C0.33 0.66 0.66 1.32 1 2 C1.66 2.33 2.32 2.66 3 3 C1.35 4.98 -0.3 6.96 -2 9 C-2.33 8.34 -2.66 7.68 -3 7 C-2.06421005 4.64018187 -1.06652192 2.30368736 0 0 Z " fill="#2D2D2E" transform="translate(295,959)"/>
<path d="M0 0 C0.66 0 1.32 0 2 0 C1.5206753 4.31392226 0.2542015 6.16569547 -3 9 C-2.01 6.03 -1.02 3.06 0 0 Z " fill="#FBE0D3" transform="translate(704,464)"/>
<path d="M0 0 C0.99 0.495 0.99 0.495 2 1 C2.73075648 3.3140622 3.40138258 5.64828869 4 8 C2.68 7.67 1.36 7.34 0 7 C0 4.69 0 2.38 0 0 Z " fill="#FB632A" transform="translate(522,828)"/>
<path d="M0 0 C0.6875 1.75 0.6875 1.75 1 4 C-0.3125 6.25 -0.3125 6.25 -2 8 C-2.66 8 -3.32 8 -4 8 C-2.25 2.25 -2.25 2.25 0 0 Z " fill="#FCE2D5" transform="translate(727,413)"/>
<path d="M0 0 C0.66 0 1.32 0 2 0 C2.33 1.32 2.66 2.64 3 4 C1.35 4.66 -0.3 5.32 -2 6 C-1.34 4.02 -0.68 2.04 0 0 Z " fill="#CBCBCC" transform="translate(679,990)"/>
<path d="M0 0 C0.33 0.99 0.66 1.98 1 3 C0.34 3 -0.32 3 -1 3 C-1.33 4.32 -1.66 5.64 -2 7 C-2.99 6.67 -3.98 6.34 -5 6 C-3.35 4.02 -1.7 2.04 0 0 Z " fill="#171819" transform="translate(390,972)"/>
<path d="M0 0 C0.66 0.99 1.32 1.98 2 3 C1.3125 5.625 1.3125 5.625 0 8 C-0.99 8.33 -1.98 8.66 -3 9 C-2.01 6.03 -1.02 3.06 0 0 Z " fill="#C2C1C2" transform="translate(310,967)"/>
<path d="M0 0 C0.66 0 1.32 0 2 0 C3.125 3.75 3.125 3.75 2 6 C1.01 5.67 0.02 5.34 -1 5 C-0.67 3.35 -0.34 1.7 0 0 Z " fill="#2E2E2F" transform="translate(679,953)"/>
<path d="M0 0 C0.66 1.32 1.32 2.64 2 4 C0.75 6.75 0.75 6.75 -1 9 C-1.66 9 -2.32 9 -3 9 C-2.01 6.03 -1.02 3.06 0 0 Z " fill="#FCDECE" transform="translate(748,361)"/>
</svg>
